<svg version="1.1" xmlns="http://www.w3.org/2000/svg" xmlns:xlink="http://www.w3.org/1999/xlink" width="17" height="18" viewBox="0 0 17 18">
<path id="heart" d="M12.219,1.988 C13.976,1.988 15.019,3.415 15.019,5.400 C15.019,10.703 10.394,14.354 8.500,15.649 C6.606,14.354 1.993,10.703 1.993,5.400 C1.993,3.415 3.024,1.988 4.781,1.988 C5.747,1.988 6.651,2.477 7.261,3.328 C7.563,3.751 8.019,3.997 8.500,3.997 C8.500,3.997 8.500,3.997 8.500,3.997 C8.982,3.997 9.437,3.751 9.739,3.328 C10.349,2.477 11.253,1.988 12.219,1.988 M12.219,0.001 C10.716,0.001 9.376,0.784 8.500,2.009 C7.623,0.784 6.284,0.001 4.781,0.001 C2.141,0.001 0.000,2.418 0.000,5.400 C0.000,12.600 7.437,17.401 8.500,18.000 C9.563,17.401 17.000,12.600 17.000,5.400 C17.000,2.418 14.859,0.001 12.219,0.001 C12.219,0.001 12.219,0.001 12.219,0.001 z" fill="#FFFFFF" />
</svg>
