<svg version="1.1" xmlns="http://www.w3.org/2000/svg" xmlns:xlink="http://www.w3.org/1999/xlink" width="17" height="17" viewBox="0 0 17 17">
<path id="time" d="M8.500,17.001 C3.813,17.001 -0.000,13.187 -0.000,8.500 C-0.000,3.814 3.813,-0.000 8.500,-0.000 C13.187,-0.000 17.000,3.814 17.000,8.500 C17.000,13.187 13.187,17.001 8.500,17.001 zM8.500,1.990 C4.910,1.990 1.989,4.910 1.989,8.500 C1.989,12.090 4.910,15.011 8.500,15.011 C12.090,15.011 15.011,12.090 15.011,8.500 C15.011,4.910 12.090,1.990 8.500,1.990 zM11.004,10.011 C11.004,10.011 7.693,10.011 7.693,10.011 C7.305,10.011 6.990,9.682 6.990,9.277 C6.990,9.277 6.990,5.000 6.990,5.000 C6.990,4.401 7.402,4.001 8.038,4.001 C8.605,4.001 8.989,4.409 8.989,5.000 C8.989,5.000 8.989,7.999 8.989,7.999 C8.989,7.999 11.004,7.999 11.004,7.999 C11.553,7.999 11.987,8.378 11.987,8.965 C11.987,9.636 11.643,10.011 11.004,10.011 z" fill="#5B5D69" />
</svg>
