<svg version="1.1" xmlns="http://www.w3.org/2000/svg" xmlns:xlink="http://www.w3.org/1999/xlink" width="26" height="26" viewBox="0 0 26 26">
<g id="Behance">
<path id="Base" d="M13.000,0.000 C20.180,0.000 26.000,5.820 26.000,13.000 C26.000,20.180 20.180,26.000 13.000,26.000 C5.820,26.000 0.000,20.180 0.000,13.000 C0.000,5.820 5.820,0.000 13.000,0.000 z" fill="#1769FF" />
<path id="Icon" d="M12.050,12.474 C12.050,12.474 13.470,12.362 13.470,10.608 C13.470,8.854 12.308,7.998 10.837,7.998 C10.837,7.998 5.997,7.998 5.997,7.998 L5.997,17.800 L10.837,17.800 C10.837,17.800 13.791,17.898 13.791,14.908 C13.792,14.908 13.920,12.474 12.050,12.474 zM8.130,9.740 L10.837,9.740 C10.837,9.740 11.495,9.740 11.495,10.760 C11.495,11.780 11.108,11.927 10.668,11.927 C10.668,11.927 8.130,11.927 8.130,11.927 L8.130,9.740 zM10.700,16.058 C10.700,16.058 8.130,16.058 8.130,16.058 L8.130,13.438 L10.837,13.438 C10.837,13.438 11.818,13.425 11.818,14.784 C11.818,15.931 11.085,16.050 10.700,16.058 zM17.733,10.492 C14.155,10.492 14.158,14.257 14.158,14.257 C14.158,14.257 13.913,18.004 17.733,18.004 C17.733,18.004 20.915,18.197 20.915,15.397 C20.915,15.397 19.279,15.397 19.279,15.397 C19.279,15.397 19.333,16.452 17.787,16.452 C17.787,16.452 16.150,16.567 16.150,14.747 C16.150,14.747 20.970,14.747 20.970,14.747 C20.971,14.748 21.498,10.492 17.733,10.492 zM19.188,13.439 L16.133,13.439 C16.133,13.439 16.333,11.927 17.770,11.927 C19.205,11.927 19.188,13.439 19.188,13.439 zM19.570,8.575 L15.732,8.575 L15.732,9.782 L19.569,9.782 L19.569,8.575 L19.570,8.575 z" fill="#FFFFFF" />
</g>
</svg>
