<svg version="1.1" xmlns="http://www.w3.org/2000/svg" xmlns:xlink="http://www.w3.org/1999/xlink" width="16" height="17" viewBox="0 0 16 17">
<path id="comment" d="M14.000,12.996 C11.862,12.996 8.727,12.995 8.727,12.995 L3.990,16.999 L3.990,12.995 C3.990,12.995 3.088,12.995 1.999,12.995 C0.823,12.995 0.000,12.234 0.000,10.990 C0.000,8.343 0.000,3.899 0.000,1.991 C0.000,0.735 0.761,-0.000 1.989,-0.000 C4.438,-0.000 10.778,-0.000 13.989,-0.000 C15.335,-0.000 16.000,0.627 16.000,1.974 C16.000,4.480 16.000,8.524 16.000,10.992 C16.000,12.411 15.376,12.996 14.000,12.996 zM13.994,1.991 L1.989,1.991 L1.989,11.004 L5.982,11.004 L5.982,12.980 L8.114,10.973 L13.994,10.973 L13.994,1.991 z" fill="#FFFFFF" />
</svg>
