<svg version="1.1" xmlns="http://www.w3.org/2000/svg" xmlns:xlink="http://www.w3.org/1999/xlink" width="26" height="26" viewBox="0 0 26 26">
<g id="Facebook">
<path id="Base" d="M13.000,0.000 C20.180,0.000 26.000,5.820 26.000,13.000 C26.000,20.180 20.180,26.000 13.000,26.000 C5.820,26.000 0.000,20.180 0.000,13.000 C0.000,5.820 5.820,0.000 13.000,0.000 z" fill="#3B5998" />
<path id="Icon" d="M14.126,19.000 L12.239,19.000 L12.239,13.001 L11.000,13.001 L11.000,10.745 L12.239,10.745 C12.239,10.745 12.237,9.714 12.237,9.714 C12.237,8.026 12.645,6.999 14.416,6.999 C14.416,6.999 15.988,6.999 15.988,6.999 L15.988,9.256 C15.988,9.256 14.852,9.256 14.852,9.256 C14.162,9.256 14.129,9.544 14.129,10.084 C14.129,10.084 14.126,10.745 14.126,10.745 L15.999,10.745 L15.803,12.999 L14.128,13.001 L14.126,19.000 z" fill="#FFFFFF" />
</g>
</svg>
