<svg version="1.1" xmlns="http://www.w3.org/2000/svg" xmlns:xlink="http://www.w3.org/1999/xlink" width="26" height="26" viewBox="0 0 26 26">
<g id="Twitter">
<path id="Base" d="M13.000,0.000 C20.180,0.000 26.000,5.820 26.000,13.000 C26.000,20.180 20.180,26.000 13.000,26.000 C5.820,26.000 0.000,20.180 0.000,13.000 C0.000,5.820 5.820,0.000 13.000,0.000 z" fill="#55ACEE" />
<path id="Icon" d="M19.000,9.183 C18.559,9.384 18.084,9.520 17.586,9.581 C18.094,9.270 18.485,8.774 18.669,8.184 C18.193,8.474 17.666,8.684 17.105,8.797 C16.656,8.306 16.016,8.000 15.308,8.000 C13.949,8.000 12.846,9.130 12.846,10.524 C12.846,10.722 12.868,10.915 12.910,11.100 C10.864,10.995 9.050,9.989 7.836,8.462 C7.624,8.834 7.502,9.268 7.502,9.731 C7.502,10.607 7.937,11.380 8.597,11.832 C8.194,11.819 7.814,11.706 7.482,11.516 C7.482,11.528 7.482,11.537 7.482,11.548 C7.482,12.771 8.331,13.792 9.457,14.024 C9.250,14.082 9.033,14.112 8.808,14.112 C8.650,14.112 8.495,14.096 8.345,14.067 C8.658,15.070 9.568,15.800 10.645,15.820 C9.802,16.498 8.741,16.900 7.587,16.900 C7.389,16.900 7.193,16.889 7.000,16.866 C8.090,17.582 9.384,18.000 10.774,18.000 C15.302,18.000 17.779,14.153 17.779,10.818 C17.779,10.708 17.776,10.598 17.772,10.491 C18.253,10.135 18.670,9.690 19.000,9.183 z" fill="#FFFFFF" />
</g>
</svg>
