<svg version="1.1" xmlns="http://www.w3.org/2000/svg" xmlns:xlink="http://www.w3.org/1999/xlink" width="26" height="26" viewBox="0 0 26 26">
<g id="Dribbble">
<path id="Base" d="M13.000,0.000 C20.180,0.000 26.000,5.820 26.000,13.000 C26.000,20.180 20.180,26.000 13.000,26.000 C5.820,26.000 0.000,20.180 0.000,13.000 C0.000,5.820 5.820,0.000 13.000,0.000 z" fill="#9BA5A8" />
<path id="Icon" d="M13.000,20.000 C9.140,20.000 6.000,16.860 6.000,13.000 C6.000,9.140 9.140,6.000 13.000,6.000 C16.860,6.000 20.000,9.140 20.000,13.000 C20.000,16.860 16.860,20.000 13.000,20.000 zM18.903,13.958 C18.699,13.894 17.053,13.403 15.179,13.703 C15.961,15.851 16.279,17.602 16.341,17.965 C17.682,17.059 18.637,15.622 18.903,13.958 zM15.336,18.513 C15.247,17.989 14.900,16.160 14.060,13.979 C14.047,13.983 14.034,13.988 14.021,13.992 C10.648,15.167 9.438,17.506 9.330,17.726 C10.344,18.516 11.618,18.988 13.000,18.988 C13.828,18.988 14.618,18.819 15.336,18.513 zM8.558,17.007 C8.693,16.775 10.334,14.058 13.418,13.061 C13.496,13.036 13.575,13.012 13.654,12.990 C13.504,12.650 13.340,12.310 13.169,11.975 C10.183,12.869 7.286,12.832 7.024,12.826 C7.022,12.887 7.021,12.948 7.021,13.009 C7.021,14.545 7.603,15.947 8.558,17.007 zM7.147,11.784 C7.415,11.788 9.878,11.799 12.675,11.056 C11.684,9.295 10.616,7.814 10.458,7.598 C8.785,8.387 7.535,9.929 7.147,11.784 zM11.599,7.196 C11.764,7.418 12.850,8.896 13.830,10.696 C15.956,9.900 16.856,8.690 16.964,8.536 C15.908,7.600 14.519,7.030 13.000,7.030 C12.518,7.030 12.049,7.088 11.599,7.196 zM17.628,9.228 C17.502,9.398 16.500,10.683 14.289,11.586 C14.429,11.870 14.562,12.160 14.686,12.452 C14.730,12.555 14.773,12.658 14.815,12.760 C16.804,12.510 18.781,12.911 18.978,12.952 C18.965,11.541 18.461,10.245 17.628,9.228 z" fill="#FFFFFF" />
</g>
</svg>
